<?xml version="1.0" standalone="no"?>
<!DOCTYPE svg PUBLIC "-//W3C//DTD SVG 20010904//EN"
 "http://www.w3.org/TR/2001/REC-SVG-20010904/DTD/svg10.dtd">
<svg version="1.0" xmlns="http://www.w3.org/2000/svg"
 width="225.000000pt" height="225.000000pt" viewBox="0 0 225.000000 225.000000"
 preserveAspectRatio="xMidYMid meet">
<metadata>
Created by potrace 1.14, written by Peter Selinger 2001-2017
</metadata>
<g transform="translate(0.000000,225.000000) scale(0.100000,-0.100000)"
fill="#000000" stroke="none">
<path d="M1050 2030 c-41 -10 -149 -37 -240 -59 -285 -70 -665 -224 -706 -286
-17 -26 -16 -30 34 -188 28 -89 71 -229 97 -312 26 -82 82 -242 125 -355 42
-113 101 -275 130 -360 107 -314 128 -332 333 -279 57 14 100 19 142 16 152
-12 551 22 880 74 70 12 295 66 303 73 2 3 -6 44 -17 93 -11 48 -30 147 -41
218 -11 72 -31 207 -46 300 -65 429 -88 553 -136 735 -28 107 -55 205 -61 217
-18 40 -62 46 -285 39 -114 -4 -228 -9 -253 -12 -44 -6 -46 -5 -58 24 -31 74
-87 91 -201 62z m142 -17 c21 -24 41 -64 35 -69 -3 -3 -49 -12 -103 -20 -150
-22 -322 -60 -386 -84 -71 -26 -74 -36 -59 -168 6 -53 12 -119 13 -146 l3 -49
-55 -18 c-30 -10 -82 -25 -115 -35 -36 -11 -52 -19 -40 -21 11 -2 64 9 118 25
53 16 97 26 97 22 0 -49 37 -355 60 -495 16 -99 39 -256 50 -350 31 -257 44
-320 67 -347 16 -18 12 -22 -40 -36 l-37 -11 -29 63 c-16 35 -50 121 -75 192
-26 71 -52 140 -58 154 -13 33 -99 272 -152 430 -24 69 -67 184 -96 255 -75
186 -160 414 -160 429 0 14 186 95 325 143 128 44 304 88 580 146 36 8 42 7
57 -10z m599 -81 c31 -2 38 -18 69 -142 12 -47 32 -122 45 -166 24 -83 69
-343 125 -719 17 -116 42 -277 56 -360 13 -82 24 -156 24 -162 0 -7 -11 -13
-25 -13 -13 0 -42 -7 -62 -15 -58 -22 -149 -43 -243 -55 -47 -6 -139 -20 -205
-30 -106 -17 -376 -40 -475 -40 l-36 0 -12 68 c-24 133 -82 522 -112 757 -17
131 -40 284 -50 340 -25 132 -70 411 -70 434 0 15 17 22 103 39 206 42 323 55
557 61 226 6 253 6 311 3z m-968 -290 c16 -108 37 -240 47 -293 11 -53 26
-154 35 -225 38 -308 90 -680 111 -797 9 -48 14 -90 11 -93 -8 -8 -94 7 -111
20 -24 17 -53 148 -81 366 -14 107 -39 272 -55 365 -16 94 -41 287 -55 429
-15 143 -30 280 -35 305 -11 62 0 86 52 104 24 9 45 16 48 16 3 1 18 -88 33
-197z m-608 61 c11 -46 121 -343 159 -431 19 -45 69 -180 110 -300 130 -380
250 -707 267 -727 5 -5 9 -17 9 -27 0 -15 -9 -18 -64 -18 l-63 0 -41 88 c-22
48 -74 181 -115 297 -41 116 -94 257 -117 315 -23 58 -76 209 -117 335 -40
127 -87 268 -103 314 -40 112 -39 123 13 155 53 32 53 32 62 -1z"/>
<path d="M1664 1656 c-11 -8 -31 -15 -44 -16 -14 0 -45 -2 -70 -3 -25 -2 -60
-9 -78 -16 -30 -13 -37 -12 -72 8 -50 28 -77 26 -124 -9 -22 -17 -46 -30 -54
-30 -8 0 -32 16 -54 35 -42 38 -64 40 -102 6 -24 -21 -48 -69 -43 -84 2 -7 11
5 20 25 18 43 58 72 86 63 11 -3 30 -19 41 -36 28 -38 63 -38 114 1 47 36 67
37 114 8 31 -19 38 -20 69 -9 34 13 95 21 160 21 18 0 35 5 38 10 4 6 21 8 39
5 23 -5 36 -2 46 9 17 21 5 33 -15 16 -12 -10 -19 -10 -27 -2 -15 15 -19 15
-44 -2z"/>
<path d="M1660 1543 c-25 -2 -151 -17 -280 -33 -129 -16 -268 -32 -307 -36
-40 -4 -73 -10 -73 -13 0 -11 107 -2 322 25 109 13 254 27 323 31 84 4 124 10
122 17 -4 12 -38 15 -107 9z"/>
<path d="M1900 542 c-23 -9 -36 -9 -51 -1 -16 8 -26 7 -45 -6 -23 -15 -28 -15
-49 -1 -32 21 -48 20 -68 -2 -25 -28 -20 -39 6 -14 l23 21 32 -19 c30 -19 34
-19 57 -4 18 12 28 13 43 5 14 -8 29 -7 51 0 17 6 38 9 46 5 8 -3 19 3 25 13
8 16 6 19 -14 17 -14 0 -39 -7 -56 -14z"/>
<path d="M1919 486 c-5 -5 -173 -25 -241 -28 -27 -2 -48 -7 -48 -12 0 -10 135
-3 283 15 100 13 131 29 54 29 -24 0 -46 -2 -48 -4z"/>
</g>
</svg>
